<svg width="121" height="144" viewBox="0 0 121 144" fill="none" xmlns="http://www.w3.org/2000/svg">
<g filter="url(#filter0_d_94_7)">
<path fill-rule="evenodd" clip-rule="evenodd" d="M60.3846 4C90.9726 4 115.769 28.7965 115.769 59.3846C115.769 82.8375 101.192 102.886 80.6035 110.963L63.5391 134.287C63.1834 134.776 62.711 135.174 62.162 135.449C61.6129 135.724 61.0033 135.868 60.3846 135.868C59.7659 135.868 59.1562 135.724 58.6072 135.449C58.0581 135.174 57.5858 134.776 57.23 134.287L40.1657 110.963C19.5774 102.886 5 82.8375 5 59.3846C5 28.7965 29.7965 4 60.3846 4Z" fill="#FF3B90"/>
<path d="M80.2383 110.032L79.9679 110.138L79.7964 110.372L62.732 133.697L62.7309 133.698C62.4707 134.056 62.1228 134.35 61.714 134.555C61.305 134.76 60.8489 134.868 60.3846 134.868C59.9202 134.868 59.4641 134.76 59.0552 134.555C58.6464 134.35 58.2984 134.056 58.0383 133.698L58.0371 133.697L40.9727 110.372L40.8013 110.138L40.5309 110.032C20.3126 102.1 6 82.4124 6 59.3846C6 29.3488 30.3488 5 60.3846 5C90.4203 5 114.769 29.3488 114.769 59.3846C114.769 82.4124 100.457 102.1 80.2383 110.032Z" stroke="#FF3B90" stroke-width="2"/>
</g>
<path d="M60.3847 15.0495C84.8703 15.0495 104.72 34.899 104.72 59.3846C104.72 83.8702 84.8703 103.72 60.3847 103.72C35.8991 103.72 16.0496 83.8702 16.0496 59.3846C16.0496 34.899 35.8991 15.0495 60.3847 15.0495Z" fill="#FF3B90" stroke="#FF3B90"/>
<mask id="path-4-outside-1_94_7" maskUnits="userSpaceOnUse" x="41" y="36" width="38" height="48" fill="black">
<rect fill="white" x="41" y="36" width="38" height="48"/>
<path d="M43.5 74.4375L60.3125 60.3125C61.6458 59.2083 62.6875 58.25 63.4375 57.4375C64.2083 56.625 64.8021 55.7812 65.2188 54.9062C65.6562 54.0104 65.875 53.0417 65.875 52C65.875 50.8542 65.6146 49.8438 65.0938 48.9688C64.5729 48.0938 63.8646 47.4375 62.9688 47C62.0729 46.5417 61.0417 46.3125 59.875 46.3125C58.7292 46.3125 57.6979 46.5521 56.7812 47.0312C55.8854 47.4896 55.1979 48.1771 54.7188 49.0938C54.2604 50.0104 54.0312 51.1042 54.0312 52.375H42.6875C42.6875 49.2917 43.3958 46.5938 44.8125 44.2812C46.25 41.9479 48.2604 40.1771 50.8438 38.9688C53.4271 37.7396 56.4479 37.125 59.9062 37.125C63.4271 37.125 66.5 37.6979 69.125 38.8438C71.7708 39.9896 73.8125 41.6146 75.25 43.7188C76.7083 45.8021 77.4375 48.2292 77.4375 51C77.4375 52.8125 77.0729 54.5625 76.3438 56.25C75.6354 57.9375 74.3542 59.8229 72.5 61.9062C70.6458 63.9688 68.0312 66.4167 64.6562 69.25L60.0625 73.1875V73.4688H77.9688V83H43.5V74.4375Z"/>
</mask>
<path d="M43.5 74.4375L60.3125 60.3125C61.6458 59.2083 62.6875 58.25 63.4375 57.4375C64.2083 56.625 64.8021 55.7812 65.2188 54.9062C65.6562 54.0104 65.875 53.0417 65.875 52C65.875 50.8542 65.6146 49.8438 65.0938 48.9688C64.5729 48.0938 63.8646 47.4375 62.9688 47C62.0729 46.5417 61.0417 46.3125 59.875 46.3125C58.7292 46.3125 57.6979 46.5521 56.7812 47.0312C55.8854 47.4896 55.1979 48.1771 54.7188 49.0938C54.2604 50.0104 54.0312 51.1042 54.0312 52.375H42.6875C42.6875 49.2917 43.3958 46.5938 44.8125 44.2812C46.25 41.9479 48.2604 40.1771 50.8438 38.9688C53.4271 37.7396 56.4479 37.125 59.9062 37.125C63.4271 37.125 66.5 37.6979 69.125 38.8438C71.7708 39.9896 73.8125 41.6146 75.25 43.7188C76.7083 45.8021 77.4375 48.2292 77.4375 51C77.4375 52.8125 77.0729 54.5625 76.3438 56.25C75.6354 57.9375 74.3542 59.8229 72.5 61.9062C70.6458 63.9688 68.0312 66.4167 64.6562 69.25L60.0625 73.1875V73.4688H77.9688V83H43.5V74.4375Z" fill="white"/>
<path d="M43.5 74.4375L42.8567 73.6719L42.5 73.9716V74.4375H43.5ZM60.3125 60.3125L59.6747 59.5423L59.6692 59.5469L60.3125 60.3125ZM63.4375 57.4375L62.712 56.7492L62.7027 56.7592L63.4375 57.4375ZM65.2188 54.9062L64.3201 54.4674L64.3159 54.4763L65.2188 54.9062ZM62.9688 47L62.5133 47.8902L62.5216 47.8945L62.5299 47.8986L62.9688 47ZM56.7812 47.0312L57.2367 47.9215L57.2445 47.9175L56.7812 47.0312ZM54.7188 49.0938L53.8325 48.6305L53.8284 48.6385L53.8243 48.6465L54.7188 49.0938ZM54.0312 52.375V53.375H55.0312V52.375H54.0312ZM42.6875 52.375H41.6875V53.375H42.6875V52.375ZM44.8125 44.2812L43.9611 43.7567L43.9598 43.7589L44.8125 44.2812ZM50.8438 38.9688L51.2674 39.8746L51.2734 39.8717L50.8438 38.9688ZM69.125 38.8438L68.7249 39.7602L68.7276 39.7614L69.125 38.8438ZM75.25 43.7188L74.4242 44.2829L74.4308 44.2922L75.25 43.7188ZM76.3438 56.25L75.4257 55.8533L75.4217 55.863L76.3438 56.25ZM72.5 61.9062L73.2437 62.5748L73.247 62.5711L72.5 61.9062ZM64.6562 69.25L64.0132 68.4841L64.0055 68.4907L64.6562 69.25ZM60.0625 73.1875L59.4117 72.4282L59.0625 72.7276V73.1875H60.0625ZM60.0625 73.4688H59.0625V74.4688H60.0625V73.4688ZM77.9688 73.4688H78.9688V72.4688H77.9688V73.4688ZM77.9688 83V84H78.9688V83H77.9688ZM43.5 83H42.5V84H43.5V83ZM44.1433 75.2031L60.9558 61.0781L59.6692 59.5469L42.8567 73.6719L44.1433 75.2031ZM60.9503 61.0827C62.3011 59.9641 63.3802 58.9739 64.1723 58.1158L62.7027 56.7592C61.9948 57.5261 60.9905 58.4526 59.6747 59.5423L60.9503 61.0827ZM64.163 58.1258C64.9951 57.2486 65.6533 56.3195 66.1216 55.3362L64.3159 54.4763C63.9508 55.243 63.4216 56.0014 62.712 56.7492L64.163 58.1258ZM66.1173 55.3451C66.6246 54.3064 66.875 53.1867 66.875 52H64.875C64.875 52.8966 64.6879 53.7144 64.3202 54.4674L66.1173 55.3451ZM66.875 52C66.875 50.6972 66.5771 49.5057 65.953 48.4573L64.2345 49.4802C64.6521 50.1818 64.875 51.0111 64.875 52H66.875ZM65.953 48.4573C65.335 47.4189 64.4822 46.6262 63.4076 46.1014L62.5299 47.8986C63.247 48.2488 63.8109 48.7686 64.2345 49.4802L65.953 48.4573ZM63.4242 46.1098C62.3665 45.5686 61.1748 45.3125 59.875 45.3125V47.3125C60.9086 47.3125 61.7793 47.5147 62.5133 47.8902L63.4242 46.1098ZM59.875 45.3125C58.5855 45.3125 57.3925 45.5833 56.318 46.145L57.2445 47.9175C58.0033 47.5208 58.8728 47.3125 59.875 47.3125V45.3125ZM56.3258 46.141C55.2402 46.6964 54.4047 47.5358 53.8325 48.6305L55.605 49.557C55.9911 48.8184 56.5306 48.2828 57.2367 47.9215L56.3258 46.141ZM53.8243 48.6465C53.2819 49.7314 53.0312 50.9854 53.0312 52.375H55.0312C55.0312 51.2229 55.2389 50.2895 55.6132 49.541L53.8243 48.6465ZM54.0312 51.375H42.6875V53.375H54.0312V51.375ZM43.6875 52.375C43.6875 49.4502 44.3575 46.9383 45.6652 44.8036L43.9598 43.7589C42.4342 46.2492 41.6875 49.1331 41.6875 52.375H43.6875ZM45.6639 44.8058C46.9948 42.6455 48.8532 41.0038 51.2674 39.8746L50.4201 38.0629C47.6676 39.3504 45.5052 41.2503 43.9611 43.7567L45.6639 44.8058ZM51.2734 39.8717C53.6974 38.7184 56.566 38.125 59.9062 38.125V36.125C56.3298 36.125 53.1568 36.7608 50.4141 38.0658L51.2734 39.8717ZM59.9062 38.125C63.3201 38.125 66.2515 38.6806 68.7249 39.7602L69.5251 37.9273C66.7485 36.7153 63.534 36.125 59.9062 36.125V38.125ZM68.7276 39.7614C71.2235 40.8423 73.1068 42.3544 74.4243 44.2828L76.0757 43.1547C74.5182 40.8748 72.3181 39.1369 69.5224 37.9261L68.7276 39.7614ZM74.4308 44.2922C75.7608 46.1923 76.4375 48.415 76.4375 51H78.4375C78.4375 48.0433 77.6558 45.4118 76.0692 43.1453L74.4308 44.2922ZM76.4375 51C76.4375 52.6741 76.1016 54.2893 75.4258 55.8533L77.2617 56.6467C78.0442 54.8357 78.4375 52.9509 78.4375 51H76.4375ZM75.4217 55.863C74.7722 57.4103 73.5682 59.2019 71.753 61.2414L73.247 62.5711C75.1402 60.4439 76.4986 58.4647 77.2658 56.637L75.4217 55.863ZM71.7563 61.2377C69.9461 63.2514 67.3707 65.6655 64.0133 68.4841L65.2992 70.0159C68.6918 67.1678 71.3456 64.6861 73.2437 62.5748L71.7563 61.2377ZM64.0055 68.4907L59.4117 72.4282L60.7133 73.9468L65.307 70.0093L64.0055 68.4907ZM59.0625 73.1875V73.4688H61.0625V73.1875H59.0625ZM60.0625 74.4688H77.9688V72.4688H60.0625V74.4688ZM76.9688 73.4688V83H78.9688V73.4688H76.9688ZM77.9688 82H43.5V84H77.9688V82ZM44.5 83V74.4375H42.5V83H44.5Z" fill="#FF3B90" mask="url(#path-4-outside-1_94_7)"/>
<g filter="url(#filter1_f_94_7)">
<ellipse cx="60.3846" cy="134.55" rx="18.4615" ry="6.5934" fill="black" fill-opacity="0.2"/>
</g>
<defs>
<filter id="filter0_d_94_7" x="0" y="0" width="120.769" height="141.868" filterUnits="userSpaceOnUse" color-interpolation-filters="sRGB">
<feFlood flood-opacity="0" result="BackgroundImageFix"/>
<feColorMatrix in="SourceAlpha" type="matrix" values="0 0 0 0 0 0 0 0 0 0 0 0 0 0 0 0 0 0 127 0" result="hardAlpha"/>
<feOffset dy="1"/>
<feGaussianBlur stdDeviation="2.5"/>
<feComposite in2="hardAlpha" operator="out"/>
<feColorMatrix type="matrix" values="0 0 0 0 0 0 0 0 0 0 0 0 0 0 0 0 0 0 0.1 0"/>
<feBlend mode="normal" in2="BackgroundImageFix" result="effect1_dropShadow_94_7"/>
<feBlend mode="normal" in="SourceGraphic" in2="effect1_dropShadow_94_7" result="shape"/>
</filter>
<filter id="filter1_f_94_7" x="39.9231" y="125.956" width="40.9231" height="17.1868" filterUnits="userSpaceOnUse" color-interpolation-filters="sRGB">
<feFlood flood-opacity="0" result="BackgroundImageFix"/>
<feBlend mode="normal" in="SourceGraphic" in2="BackgroundImageFix" result="shape"/>
<feGaussianBlur stdDeviation="1" result="effect1_foregroundBlur_94_7"/>
</filter>
</defs>
</svg>
