<svg width="121" height="144" viewBox="0 0 121 144" fill="none" xmlns="http://www.w3.org/2000/svg">
<g filter="url(#filter0_f_86_33)">
<ellipse cx="60.3846" cy="134.55" rx="18.4615" ry="6.5934" fill="black" fill-opacity="0.2"/>
</g>
<g filter="url(#filter1_d_86_33)">
<path fill-rule="evenodd" clip-rule="evenodd" d="M60.3846 4C90.9726 4 115.769 28.7965 115.769 59.3846C115.769 82.8375 101.192 102.886 80.6035 110.963L63.5391 134.287C63.1834 134.776 62.711 135.174 62.162 135.449C61.6129 135.724 61.0033 135.868 60.3846 135.868C59.7659 135.868 59.1562 135.724 58.6072 135.449C58.0581 135.174 57.5858 134.776 57.23 134.287L40.1657 110.963C19.5774 102.886 5 82.8375 5 59.3846C5 28.7965 29.7965 4 60.3846 4Z" fill="#FFDA55"/>
<path d="M80.2383 110.032L79.9679 110.138L79.7964 110.372L62.732 133.697L62.7309 133.698C62.4707 134.056 62.1228 134.35 61.714 134.555C61.305 134.76 60.8489 134.868 60.3846 134.868C59.9202 134.868 59.4641 134.76 59.0552 134.555C58.6464 134.35 58.2984 134.056 58.0383 133.698L58.0371 133.697L40.9727 110.372L40.8013 110.138L40.5309 110.032C20.3126 102.1 6 82.4124 6 59.3846C6 29.3488 30.3488 5 60.3846 5C90.4203 5 114.769 29.3488 114.769 59.3846C114.769 82.4124 100.457 102.1 80.2383 110.032Z" stroke="#FFDA55" stroke-width="2"/>
</g>
<path d="M105.22 59.3846C105.22 34.6228 85.1465 14.5494 60.3847 14.5494C35.6229 14.5494 15.5496 34.6228 15.5496 59.3846C15.5496 84.1463 35.6229 104.22 60.3847 104.22C85.1465 104.22 105.22 84.1463 105.22 59.3846Z" fill="#FFDA55"/>
<path d="M60.2188 83.625C56.6979 83.625 53.5521 83.0208 50.7812 81.8125C48.0104 80.5833 45.8542 78.875 44.3125 76.6875C42.7708 74.5 41.9896 72.0417 41.9688 69.3125H53.9688C53.9896 70.1875 54.2708 70.9792 54.8125 71.6875C55.3542 72.3958 56.1042 72.9583 57.0625 73.375C58.0208 73.7708 59.0833 73.9688 60.25 73.9688C61.4375 73.9688 62.4896 73.7604 63.4062 73.3438C64.3438 72.9271 65.0625 72.3438 65.5625 71.5938C66.0625 70.8438 66.3021 69.9896 66.2812 69.0312C66.3021 68.0729 66.0208 67.2292 65.4375 66.5C64.875 65.75 64.0521 65.1667 62.9688 64.75C61.9062 64.3333 60.6979 64.125 59.3438 64.125H54.75V55.8438H59.3438C60.5729 55.8438 61.6771 55.6354 62.6562 55.2188C63.6562 54.8021 64.4167 54.2188 64.9375 53.4688C65.4792 52.7188 65.7292 51.8854 65.6875 50.9688C65.7292 50.0729 65.5208 49.2708 65.0625 48.5625C64.625 47.8333 63.9792 47.2812 63.125 46.9062C62.2917 46.5104 61.3438 46.3125 60.2812 46.3125C59.1562 46.3125 58.1354 46.5208 57.2188 46.9375C56.3229 47.3333 55.6146 47.8958 55.0938 48.625C54.5729 49.3542 54.2917 50.1875 54.25 51.125H42.8438C42.9062 48.3958 43.6771 45.9792 45.1562 43.875C46.6562 41.7708 48.7188 40.125 51.3438 38.9375C53.9688 37.7292 56.9479 37.125 60.2812 37.125C63.5729 37.125 66.5 37.6875 69.0625 38.8125C71.625 39.9375 73.625 41.5 75.0625 43.5C76.5 45.4792 77.1979 47.7292 77.1562 50.25C77.1979 51.875 76.8229 53.3542 76.0312 54.6875C75.2604 56 74.1667 57.0625 72.75 57.875C71.3542 58.6667 69.7708 59.1667 68 59.375V59.75C70.375 60 72.375 60.5938 74 61.5312C75.6458 62.4479 76.875 63.625 77.6875 65.0625C78.5 66.5 78.8854 68.1562 78.8438 70.0312C78.8854 72.6562 78.1042 75 76.5 77.0625C74.9167 79.1042 72.7083 80.7083 69.875 81.875C67.0625 83.0417 63.8438 83.625 60.2188 83.625Z" fill="white"/>
<defs>
<filter id="filter0_f_86_33" x="39.9231" y="125.956" width="40.9231" height="17.1868" filterUnits="userSpaceOnUse" color-interpolation-filters="sRGB">
<feFlood flood-opacity="0" result="BackgroundImageFix"/>
<feBlend mode="normal" in="SourceGraphic" in2="BackgroundImageFix" result="shape"/>
<feGaussianBlur stdDeviation="1" result="effect1_foregroundBlur_86_33"/>
</filter>
<filter id="filter1_d_86_33" x="0" y="0" width="120.769" height="141.868" filterUnits="userSpaceOnUse" color-interpolation-filters="sRGB">
<feFlood flood-opacity="0" result="BackgroundImageFix"/>
<feColorMatrix in="SourceAlpha" type="matrix" values="0 0 0 0 0 0 0 0 0 0 0 0 0 0 0 0 0 0 127 0" result="hardAlpha"/>
<feOffset dy="1"/>
<feGaussianBlur stdDeviation="2.5"/>
<feComposite in2="hardAlpha" operator="out"/>
<feColorMatrix type="matrix" values="0 0 0 0 0 0 0 0 0 0 0 0 0 0 0 0 0 0 0.1 0"/>
<feBlend mode="normal" in2="BackgroundImageFix" result="effect1_dropShadow_86_33"/>
<feBlend mode="normal" in="SourceGraphic" in2="effect1_dropShadow_86_33" result="shape"/>
</filter>
</defs>
</svg>
