<svg width="121" height="144" viewBox="0 0 121 144" fill="none" xmlns="http://www.w3.org/2000/svg">
<g filter="url(#filter0_f_86_39)">
<ellipse cx="60.3846" cy="134.55" rx="18.4615" ry="6.5934" fill="black" fill-opacity="0.2"/>
</g>
<g filter="url(#filter1_d_86_39)">
<path fill-rule="evenodd" clip-rule="evenodd" d="M60.3846 4C90.9726 4 115.769 28.7965 115.769 59.3846C115.769 82.8375 101.192 102.886 80.6035 110.963L63.5391 134.287C63.1834 134.776 62.711 135.174 62.162 135.449C61.6129 135.724 61.0033 135.868 60.3846 135.868C59.7659 135.868 59.1562 135.724 58.6072 135.449C58.0581 135.174 57.5858 134.776 57.23 134.287L40.1657 110.963C19.5774 102.886 5 82.8375 5 59.3846C5 28.7965 29.7965 4 60.3846 4Z" fill="#77C994"/>
<path d="M80.2383 110.032L79.9679 110.138L79.7964 110.372L62.732 133.697L62.7309 133.698C62.4707 134.056 62.1228 134.35 61.714 134.555C61.305 134.76 60.8489 134.868 60.3846 134.868C59.9202 134.868 59.4641 134.76 59.0552 134.555C58.6464 134.35 58.2984 134.056 58.0383 133.698L58.0371 133.697L40.9727 110.372L40.8013 110.138L40.5309 110.032C20.3126 102.1 6 82.4124 6 59.3846C6 29.3488 30.3488 5 60.3846 5C90.4203 5 114.769 29.3488 114.769 59.3846C114.769 82.4124 100.457 102.1 80.2383 110.032Z" stroke="#77C994" stroke-width="2"/>
</g>
<path d="M105.22 59.3846C105.22 34.6228 85.1465 14.5494 60.3847 14.5494C35.6229 14.5494 15.5496 34.6228 15.5496 59.3846C15.5496 84.1463 35.6229 104.22 60.3847 104.22C85.1465 104.22 105.22 84.1463 105.22 59.3846Z" fill="#77C994"/>
<path d="M41.3438 66.5312L59.6562 37.75H68.0312V50.1875H63.25L53.125 66.125V66.5H80.0312V75.8125H41.3438V66.5312ZM63.3438 72.9688L63.5625 68.9375V37.75H74.7188V83H63.3438V72.9688Z" fill="white"/>
<defs>
<filter id="filter0_f_86_39" x="39.9231" y="125.956" width="40.9231" height="17.1868" filterUnits="userSpaceOnUse" color-interpolation-filters="sRGB">
<feFlood flood-opacity="0" result="BackgroundImageFix"/>
<feBlend mode="normal" in="SourceGraphic" in2="BackgroundImageFix" result="shape"/>
<feGaussianBlur stdDeviation="1" result="effect1_foregroundBlur_86_39"/>
</filter>
<filter id="filter1_d_86_39" x="0" y="0" width="120.769" height="141.868" filterUnits="userSpaceOnUse" color-interpolation-filters="sRGB">
<feFlood flood-opacity="0" result="BackgroundImageFix"/>
<feColorMatrix in="SourceAlpha" type="matrix" values="0 0 0 0 0 0 0 0 0 0 0 0 0 0 0 0 0 0 127 0" result="hardAlpha"/>
<feOffset dy="1"/>
<feGaussianBlur stdDeviation="2.5"/>
<feComposite in2="hardAlpha" operator="out"/>
<feColorMatrix type="matrix" values="0 0 0 0 0 0 0 0 0 0 0 0 0 0 0 0 0 0 0.1 0"/>
<feBlend mode="normal" in2="BackgroundImageFix" result="effect1_dropShadow_86_39"/>
<feBlend mode="normal" in="SourceGraphic" in2="effect1_dropShadow_86_39" result="shape"/>
</filter>
</defs>
</svg>
